<svg width="160" height="160" viewBox="0 0 160 160" fill="none" xmlns="http://www.w3.org/2000/svg">
<path d="M43.3204 142.842L0 125.928V73.3076L43.3204 90.2241V142.842Z" fill="#FA9706"/>
<path d="M43.3203 142.842L86.6457 125.928V73.3076L43.3203 90.2241V142.842Z" fill="#3E0563"/>
<path d="M43.3204 56.3914L0 73.3075L43.3204 90.224L86.6408 73.3075L43.3204 56.3914Z" fill="#FFCE54"/>
<path d="M45.6779 70.5058C46.9767 71.807 46.9767 73.9187 45.6779 75.22C44.3744 76.5213 42.265 76.5213 40.9659 75.22C39.6624 73.9187 39.6624 71.807 40.9659 70.5058C42.265 69.2045 44.3744 69.2045 45.6779 70.5058Z" fill="#434A54"/>
<path d="M70.9565 93.9255C69.6577 95.2343 69.6577 97.3437 70.9565 98.6425C72.2603 99.9413 74.3694 99.9413 75.6686 98.6425C76.9723 97.3437 76.9723 95.2343 75.6686 93.9255C74.3698 92.6264 72.2603 92.6264 70.9565 93.9255Z" fill="#434A54"/>
<path d="M15.6832 93.9255C16.9867 95.2343 16.9867 97.3437 15.6832 98.6425C14.3844 99.9413 12.275 99.9413 10.9712 98.6425C9.67237 97.3437 9.67237 95.2343 10.9712 93.9255C12.275 92.6264 14.3844 92.6264 15.6832 93.9255Z" fill="#434A54"/>
<path d="M32.3481 117.158C33.6469 118.467 33.6469 120.576 32.3481 121.875C31.0443 123.174 28.9352 123.174 27.636 121.875C26.3323 120.576 26.3323 118.467 27.636 117.158C28.9348 115.859 31.0443 115.859 32.3481 117.158Z" fill="#434A54"/>
<path d="M54.2962 117.256C52.9924 118.554 52.9924 120.664 54.2962 121.973C55.595 123.271 57.7044 123.271 59.0082 121.973C60.307 120.664 60.307 118.554 59.0082 117.256C57.7044 115.957 55.595 115.957 54.2962 117.256Z" fill="#434A54"/>
<path d="M62.6263 105.596C61.3225 106.894 61.3225 109.003 62.6263 110.302C63.9251 111.611 66.0345 111.611 67.3383 110.302C68.6421 109.004 68.6421 106.895 67.3383 105.596C66.0345 104.287 63.9251 104.287 62.6263 105.596Z" fill="#434A54"/>
<path d="M127.006 98.1977L80.5321 99.9509L59.5605 51.6897L106.035 49.9387L127.006 98.1977Z" fill="#FA9706"/>
<path d="M127.006 98.1977L160 65.4151L139.028 17.158L106.035 49.9387L127.006 98.1977Z" fill="#3E0563"/>
<path d="M92.5485 18.9083L59.5605 51.6897L106.035 49.9387L139.028 17.158L92.5485 18.9083Z" fill="#FFCE54"/>
<path d="M100.498 30.6982C102.202 31.3819 103.032 33.3226 102.349 35.0317C101.665 36.738 99.7267 37.5684 98.0179 36.8846C96.3088 36.1986 95.4787 34.2601 96.1622 32.5513C96.8457 30.8422 98.7892 30.0119 100.498 30.6982Z" fill="#434A54"/>
<path d="M82.0947 63.943C83.8038 64.6268 84.6338 66.5675 83.9504 68.2741C83.2666 69.9832 81.3281 70.8133 79.6193 70.1298C77.9105 69.4438 77.0801 67.5053 77.7639 65.7962C78.447 64.0871 80.3906 63.2568 82.0947 63.943Z" fill="#434A54"/>
<path d="M107.9 81.8992C109.609 82.583 110.439 84.5236 109.756 86.2303C109.072 87.9394 107.129 88.7694 105.425 88.0859C103.716 87.4022 102.886 85.459 103.569 83.7524C104.253 82.0433 106.192 81.2132 107.9 81.8992Z" fill="#434A54"/>
<path d="M100.039 63.5155C101.748 64.199 102.578 66.14 101.89 67.8491C101.206 69.5557 99.2677 70.3857 97.5589 69.7023C95.8501 69.0188 95.0197 67.0778 95.7032 65.3687C96.3869 63.6596 98.3301 62.8299 100.039 63.5155Z" fill="#434A54"/>
<path d="M89.9603 82.324C91.6694 83.01 92.4994 84.9485 91.816 86.6601C91.1322 88.3692 89.189 89.1993 87.4805 88.5158C85.7714 87.8274 84.9414 85.8888 85.6298 84.1772C86.3133 82.4703 88.2512 81.6403 89.9603 82.324Z" fill="#434A54"/>
<path d="M132.915 42.2019C132.227 43.9082 133.057 45.8492 134.766 46.5352C136.475 47.2189 138.418 46.3886 139.102 44.6798C139.785 42.9732 138.955 41.0325 137.246 40.3462C135.537 39.6628 133.599 40.4931 132.915 42.2019Z" fill="#434A54"/>
<path d="M140.777 60.5834C140.093 62.2922 140.923 64.2332 142.632 64.9167C144.341 65.6026 146.279 64.7726 146.963 63.0638C147.651 61.355 146.821 59.4165 145.112 58.7302C143.404 58.0465 141.465 58.8768 140.777 60.5834Z" fill="#434A54"/>
<path d="M120.215 54.8824C119.531 56.5916 120.362 58.53 122.071 59.216C123.78 59.8998 125.718 59.0694 126.401 57.3628C127.085 55.6537 126.255 53.713 124.551 53.0293C122.842 52.3439 120.899 53.1736 120.215 54.8824Z" fill="#434A54"/>
<path d="M128.08 73.2662C127.397 74.9754 128.227 76.9139 129.931 77.5998C131.64 78.2836 133.584 77.4532 134.267 75.7441C134.951 74.035 134.121 72.0968 132.411 71.4131C130.702 70.7277 128.764 71.5574 128.08 73.2662Z" fill="#434A54"/>
<path d="M130.497 57.7366C129.814 59.4457 130.644 61.3867 132.353 62.0702C134.062 62.7561 136.001 61.9261 136.684 60.2173C137.368 58.5082 136.537 56.5672 134.833 55.8837C133.124 55.2003 131.181 56.03 130.497 57.7366Z" fill="#434A54"/>
</svg>
