<svg width="160" height="160" viewBox="0 0 160 160" fill="none" xmlns="http://www.w3.org/2000/svg">
<path d="M52.023 135.642H45.5222L35.1738 118.925L64.3614 104.331L68.0762 111.787L52.023 135.642Z" fill="#263238"/>
<path d="M159.964 95.6015V95.3892C159.38 90.6661 153.357 71.19 149.351 58.9312C147.151 52.0392 144.6 45.2642 141.709 38.6326C136.402 26.2677 127.46 6.36707 124.594 2.51962L124.461 2.3339C123.822 1.51918 122.985 0.880688 122.03 0.478584C121.076 0.0764789 120.035 -0.076036 119.005 0.0354434C117.975 0.146923 116.99 0.51871 116.144 1.11578C115.297 1.71286 114.617 2.51558 114.166 3.44833C110.239 11.4086 101.483 28.3374 92.5409 36.9079C84.6602 44.6028 43.0016 62.4603 15.6714 73.7904C12.5461 75.0963 9.71505 77.0168 7.34624 79.4378C4.97744 81.8589 3.11917 84.7312 1.88173 87.8842C0.644287 91.0372 0.0529065 94.4066 0.142671 97.7926C0.232436 101.179 1.00152 104.512 2.40429 107.595V107.595C5.13325 113.594 10.0967 118.291 16.2374 120.685C22.3781 123.079 29.2108 122.98 35.2801 120.411C61.3632 109.346 102.093 92.8419 113.158 92.8419C125.549 92.8419 143.513 98.8917 151.924 101.996C152.893 102.334 153.931 102.42 154.941 102.249C155.952 102.077 156.903 101.652 157.706 101.014C158.508 100.375 159.136 99.5444 159.531 98.598C159.926 97.6517 160.075 96.6209 159.964 95.6015V95.6015Z" fill="#3E0563"/>
<path d="M35.1211 120.411C29.0518 122.98 22.2191 123.079 16.0784 120.685C9.93771 118.291 4.97428 113.594 2.24532 107.595V107.595C0.847078 104.502 0.0857892 101.159 0.00684165 97.766C-0.072106 94.3727 0.532889 90.9983 1.78578 87.8438C3.03867 84.6892 4.91382 81.8192 7.29945 79.4048C9.68507 76.9904 12.5324 75.0809 15.6716 73.7903L22.7828 70.7654C22.7828 70.7654 35.5722 81.2464 39.0747 96.5831C42.5772 111.92 41.4363 117.678 41.4363 117.678L35.1211 120.411Z" fill="#FA9706"/>
<path d="M41.4098 117.678C41.171 117.678 41.4098 114.733 41.0914 110.063C40.8687 107.332 40.4609 104.619 39.8708 101.943C39.1169 98.6815 38.1236 95.4799 36.899 92.3643C34.5735 86.7264 31.4747 81.4396 27.6916 76.6561C24.7463 72.9943 22.6236 70.9777 22.7828 70.792C23.3983 71.1233 23.9616 71.5435 24.4545 72.0391C25.8677 73.2763 27.1974 74.6059 28.4346 76.0192C32.5416 80.7489 35.8326 86.1293 38.1726 91.9397C39.4376 95.132 40.4317 98.425 41.1444 101.784C41.6904 104.53 42.0011 107.317 42.0731 110.116C42.1587 111.993 42.0877 113.875 41.8609 115.741C41.8209 116.407 41.6684 117.062 41.4098 117.678V117.678Z" fill="#263238"/>
<rect x="40.7852" y="128.185" width="31.834" height="37.1478" transform="rotate(-32.4834 40.7852 128.185)" fill="#FA9706"/>
</svg>
