<svg width="160" height="160" viewBox="0 0 160 160" fill="none" xmlns="http://www.w3.org/2000/svg">
<path d="M136.168 100.565C149.33 67.8069 137.506 32.2129 109.758 21.0639C82.0101 9.91495 48.8459 27.4329 35.6837 60.1913C22.5216 92.9497 34.3457 128.544 62.0936 139.693C89.8415 150.842 123.006 133.324 136.168 100.565Z" fill="#FA9706"/>
<g opacity="0.1">
<path opacity="0.1" d="M136.168 100.565C149.33 67.8066 137.506 32.2126 109.758 21.0637C82.0101 9.91471 48.8459 27.4326 35.6837 60.191C22.5216 92.9494 34.3457 128.543 62.0936 139.692C89.8415 150.841 123.006 133.323 136.168 100.565Z" fill="#0C0114"/>
<path opacity="0.1" d="M83.4585 16.9478L96.3298 17.9007L75.216 142.876L62.3447 141.923L83.4585 16.9478Z" fill="#0C0114"/>
</g>
<path d="M124.316 99.6883C137.478 66.9299 125.654 31.3359 97.9064 20.187C70.1585 9.038 36.9943 26.5559 23.8322 59.3143C10.67 92.0727 22.4941 127.667 50.2421 138.816C77.99 149.965 111.154 132.447 124.316 99.6883Z" fill="#FA9706"/>
<path d="M113.269 95.2497C123.536 69.6962 114.311 41.9304 92.6646 33.2329C71.018 24.5354 45.1468 38.1999 34.8796 63.7533C24.6123 89.3068 33.8371 117.073 55.4836 125.77C77.1302 134.468 103.001 120.803 113.269 95.2497Z" fill="white"/>
<path d="M102.349 90.8568C109.752 72.4322 103.1 52.4121 87.4911 46.1406C71.8825 39.8692 53.228 49.7212 45.8251 68.1458C38.4222 86.5705 45.0742 106.591 60.6828 112.862C76.2914 119.134 94.9459 109.281 102.349 90.8568Z" fill="#3E0563"/>
<path d="M91.2899 86.4133C95.7979 75.1937 91.7504 63.0037 82.2495 59.1863C72.7486 55.3689 61.3922 61.3696 56.8841 72.5893C52.3761 83.809 56.4237 95.9989 65.9246 99.8163C75.4254 103.634 86.7819 97.633 91.2899 86.4133Z" fill="white"/>
<path d="M82.5805 78.4825C82.5805 83.73 78.7439 88.4453 74.0533 89.0146C69.3627 89.584 65.6004 85.8092 65.6251 80.5741C65.6499 75.3389 69.4741 70.6731 74.1523 70.0296C78.8305 69.386 82.6053 73.235 82.5805 78.4825Z" fill="#FA9706"/>
</svg>
