<svg width="120" height="120" viewBox="0 0 120 120" fill="none" xmlns="http://www.w3.org/2000/svg">
<path d="M65.625 84.375H54.375V112.5H65.625V84.375Z" fill="#3E0563"/>
<path d="M74.9922 105H44.9922C41.8905 105 39.3672 107.523 39.3672 110.625V118.125C39.3672 119.161 40.2058 120 41.2422 120H78.7422C79.7786 120 80.6172 119.161 80.6172 118.125V110.625C80.6172 107.523 78.0939 105 74.9922 105Z" fill="#FA9706"/>
<path d="M74.9927 105H60V120H78.7427C79.7791 120 80.6177 119.161 80.6177 118.125V110.625C80.6177 107.523 78.0945 105 74.9927 105Z" fill="#FA9706"/>
<path d="M31.8728 71.2519C31.3802 71.2519 30.8786 71.153 30.397 70.946C12.3337 63.2063 0.120623 43.0078 0.00695131 20.689C-0.00406431 18.6713 0.774061 16.7723 2.19883 15.3405C3.61961 13.9123 5.51125 13.125 7.52172 13.125H29.9997C32.0706 13.125 33.7497 14.8041 33.7497 16.875C33.7497 18.9459 32.0706 20.625 29.9997 20.625H7.52172C7.60586 40.0287 17.9917 57.4713 33.3524 64.054C35.2548 64.8689 36.1375 67.0734 35.3207 68.9777C34.7127 70.3985 33.3285 71.2519 31.8728 71.2519Z" fill="#FA9706"/>
<path d="M88.1264 71.2519C86.6707 71.2519 85.2865 70.3985 84.6785 68.9777C83.862 67.0734 84.7444 64.8689 86.6468 64.054C102.008 57.4713 112.393 40.0287 112.492 20.6524L89.9996 20.625C87.9286 20.625 86.2496 18.9459 86.2496 16.875C86.2496 14.8041 87.9286 13.125 89.9996 13.125H112.478C114.488 13.125 116.379 13.9123 117.8 15.3405C119.225 16.7723 120.003 18.6713 119.992 20.6909C119.879 43.0078 107.666 63.206 89.6023 70.946C89.1206 71.153 88.6189 71.2519 88.1264 71.2519Z" fill="#FA9706"/>
<path d="M91.8672 1.875H28.1172C27.0808 1.875 26.2422 2.71359 26.2422 3.75V54.375C26.2422 72.9839 41.3833 88.125 59.9922 88.125C78.6011 88.125 93.7422 72.9839 93.7422 54.375V3.75C93.7422 2.71359 92.9034 1.875 91.8672 1.875Z" fill="#FA9706"/>
<path d="M58.9995 1.875H27.1172C26.0808 1.875 25.2422 2.71359 25.2422 3.75V54.375C25.2422 72.9839 40.3833 88.125 58.9922 88.125C58.9948 88.125 58.9971 88.1248 58.9995 88.1248V1.875Z" fill="#FA9706"/>
<path d="M62.5276 26.2167L66.1677 37.4195H77.9472C80.5293 37.4195 81.6027 40.7238 79.514 42.2413L69.9843 49.165L73.6244 60.3679C74.4222 62.8237 71.6115 64.8656 69.5228 63.348L59.9931 56.4243L50.4634 63.348C48.3744 64.8658 45.5638 62.8237 46.3616 60.3679L50.0017 49.165L40.472 42.2413C38.383 40.7235 39.4567 37.4195 42.0388 37.4195H53.8183L57.4583 26.2167C58.2554 23.7611 61.7296 23.7611 62.5276 26.2167Z" fill="white"/>
<path d="M77.9477 37.4196H66.1683L62.5282 26.2168C62.1302 24.9914 61.0657 24.3786 60 24.376V56.4296L69.5229 63.3483C71.6119 64.8661 74.4225 62.824 73.6245 60.3682L69.9844 49.1654L79.5141 42.2417C81.6033 40.7239 80.5296 37.4196 77.9477 37.4196Z" fill="white"/>
<path d="M26.25 7.5C24.1875 7.5 22.5 5.8125 22.5 3.75C22.5 1.6875 24.1875 0 26.25 0H93.75C95.8125 0 97.5 1.6875 97.5 3.75C97.5 5.8125 95.8125 7.5 93.75 7.5H26.25Z" fill="#3E0563"/>
</svg>
